# xmcd
#
# Track frame offsets: 
#        150
#        20042
#        37365
#
# Disc length: 704 seconds
#
# Revision: 5
# Processed by: cddbd v1.5.2PL0 Copyright (c) Steve Scherf et al.
# Submitted via: ExactAudioCopy v1.1
#
DISCID=2602be03
DTITLE=U2 - Magnificent
DYEAR=2009
DGENRE=Rock
TTITLE0=Magnificent (Edit)
TTITLE1=Vertigo (Live from Somerville Theatre, Boston)
TTITLE2=Get On Your Boots (Justice Remix)
EXTD=YEAR: 2009
EXTT0=
EXTT1=
EXTT2=
PLAYORDER=
